<svg width="16" height="12" viewBox="0 0 16 12" fill="none" xmlns="http://www.w3.org/2000/svg">
<path d="M4.076 11.376C3.452 11.376 2.888 11.268 2.384 11.052C1.904 10.812 1.52 10.476 1.232 10.044C0.992 9.708 0.776 9.24 0.584 8.64C0.416 8.04 0.332 7.368 0.332 6.624C0.332 5.424 0.644 4.296 1.268 3.24C1.892 2.16 2.852 1.32 4.148 0.719999L4.472 1.368C3.848 1.656 3.284 2.076 2.78 2.628C2.3 3.156 1.964 3.72 1.772 4.32C1.556 4.992 1.52 5.652 1.664 6.3C2.288 5.556 3.164 5.184 4.292 5.184C5.252 5.184 6.02 5.46 6.596 6.012C7.172 6.54 7.46 7.296 7.46 8.28C7.46 9.216 7.148 9.972 6.524 10.548C5.9 11.1 5.084 11.376 4.076 11.376ZM12.356 11.376C11.732 11.376 11.168 11.268 10.664 11.052C10.184 10.812 9.8 10.476 9.512 10.044C9.272 9.708 9.056 9.24 8.864 8.64C8.696 8.04 8.612 7.368 8.612 6.624C8.612 5.424 8.924 4.296 9.548 3.24C10.172 2.16 11.132 1.32 12.428 0.719999L12.752 1.368C12.128 1.656 11.564 2.076 11.06 2.628C10.58 3.156 10.244 3.72 10.052 4.32C9.836 4.992 9.8 5.652 9.944 6.3C10.568 5.556 11.444 5.184 12.572 5.184C13.532 5.184 14.3 5.46 14.876 6.012C15.452 6.54 15.74 7.296 15.74 8.28C15.74 9.216 15.428 9.972 14.804 10.548C14.18 11.1 13.364 11.376 12.356 11.376Z" fill="#E6D5D2"/>
</svg>
